<svg t="1760430001159" class="icon" viewBox="0 0 1024 1024" version="1.1" xmlns="http://www.w3.org/2000/svg" p-id="19428" width="200" height="200"><path d="M855.771429 658.285714c0-14.628571 7.314286-21.942857 21.942857-21.942857h124.342857c14.628571 0 21.942857 14.628571 21.942857 21.942857 0 14.628571-7.314286 21.942857-21.942857 21.942857H877.714286c-14.628571 0-21.942857-14.628571-21.942857-21.942857zM804.571429 504.685714c0-14.628571 14.628571-21.942857 21.942857-21.942857h175.542857c14.628571 0 21.942857 14.628571 21.942857 21.942857 0 14.628571-14.628571 21.942857-21.942857 21.942857h-175.542857c-14.628571 0-21.942857-7.314286-21.942857-21.942857z m-51.2-175.542857c0-14.628571 14.628571-21.942857 21.942857-21.942857h226.742857c14.628571 0 21.942857 14.628571 21.942857 21.942857 0 14.628571-14.628571 21.942857-21.942857 21.942857h-226.742857c-7.314286 0-21.942857-7.314286-21.942857-21.942857zM36.571429 892.342857c-43.885714 0-43.885714-87.771429-7.314286-102.4 0 0 87.771429-65.828571 146.285714-95.085714s138.971429-80.457143 138.971429-102.4v-21.942857c-51.2-51.2-80.457143-124.342857-80.457143-197.485715 0-117.028571 21.942857-241.371429 190.171428-241.371428 168.228571 0 190.171429 124.342857 190.171429 241.371428 0 80.457143-29.257143 146.285714-80.457143 197.485715v21.942857c0 21.942857 87.771429 73.142857 138.971429 102.4 58.514286 36.571429 95.085714 58.514286 138.971428 95.085714 43.885714 36.571429 43.885714 102.4 0 102.4H36.571429z" p-id="19429" fill="#ffffff"></path></svg>